<svg width="44" height="45" viewBox="0 0 44 45" fill="none" xmlns="http://www.w3.org/2000/svg">
<g clip-path="url(#clip0_294_2)">
<path d="M27.2694 2.89241L23.0486 1.76718L19.4917 14.9744L16.2804 3.05083L12.0595 4.17606L15.5291 17.0586L6.88724 8.46068L3.79738 11.5348L13.2764 20.9658L1.47179 17.8188L0.34082 22.0181L13.2388 25.4566C13.0912 24.8229 13.0131 24.1626 13.0131 23.4842C13.0131 18.682 16.9258 14.7891 21.7525 14.7891C26.5792 14.7891 30.492 18.682 30.492 23.4842C30.492 24.1583 30.4148 24.8145 30.269 25.4444L41.9909 28.5693L43.1218 24.37L30.1725 20.9178L41.9779 17.7706L40.8469 13.5713L27.8981 17.0232L36.54 8.42538L33.4501 5.35122L24.1026 14.6513L27.2694 2.89241Z" fill="#FF4405"/>
<path d="M30.2567 25.4933C29.8948 27.0155 29.1308 28.3829 28.0825 29.4785L36.5745 37.9274L39.6644 34.8533L30.2567 25.4933Z" fill="#FF4405"/>
<path d="M27.9968 29.5668C26.9359 30.6449 25.5951 31.4494 24.0916 31.864L27.1817 43.3377L31.4025 42.2124L27.9968 29.5668Z" fill="#FF4405"/>
<path d="M23.934 31.906C23.2364 32.0844 22.5053 32.1792 21.7518 32.1792C20.9446 32.1792 20.1629 32.0703 19.4208 31.8665L16.3279 43.3506L20.5487 44.4758L23.934 31.906Z" fill="#FF4405"/>
<path d="M19.2715 31.8241C17.791 31.3889 16.4741 30.5742 15.4348 29.493L6.92192 37.9627L10.0118 41.0368L19.2715 31.8241Z" fill="#FF4405"/>
<path d="M15.3647 29.4181C14.3432 28.3301 13.5992 26.981 13.2451 25.4823L1.48486 28.6174L2.61582 32.8168L15.3647 29.4181Z" fill="#FF4405"/>
</g>
<defs>
<clipPath id="clip0_294_2">
<rect width="44" height="43.7764" fill="white" transform="translate(0 0.781494)"/>
</clipPath>
</defs>
</svg>
